<mxfile host="app.diagrams.net" modified="2023-10-26T12:02:14.764Z" agent="Mozilla/5.0 (X11; Linux x86_64) AppleWebKit/537.36 (KHTML, like Gecko) SamsungBrowser/22.0 Chrome/111.0.5563.116 Safari/537.36" etag="c2KEW4vrFfBiV5teHRsi" version="22.0.8" type="github">
  <diagram name="Page-1" id="zBqm8ygghPVLinz1BmMf">
    <mxGraphModel dx="1394" dy="1847" grid="1" gridSize="10" guides="1" tooltips="1" connect="1" arrows="1" fold="1" page="1" pageScale="1" pageWidth="850" pageHeight="1100" math="0" shadow="0">
      <root>
        <mxCell id="0" />
        <mxCell id="1" parent="0" />
        <mxCell id="G-GRrxJtMZ8-qGgRV_3n-23" value="ADL Framework" style="rounded=0;whiteSpace=wrap;html=1;strokeColor=#36393d;align=center;verticalAlign=top;fontFamily=Helvetica;fontSize=12;fillColor=#ffff88;fontStyle=1" parent="1" vertex="1">
          <mxGeometry x="190" y="-20" width="410" height="380" as="geometry" />
        </mxCell>
        <mxCell id="sQM8UWbegV8d2F65R5zS-1" value="Bitmap" style="shape=umlLifeline;perimeter=lifelinePerimeter;whiteSpace=wrap;html=1;container=1;dropTarget=0;collapsible=0;recursiveResize=0;outlineConnect=0;portConstraint=eastwest;newEdgeStyle={&quot;curved&quot;:0,&quot;rounded&quot;:0};participant=umlEntity;strokeColor=default;align=center;verticalAlign=middle;fontFamily=Helvetica;fontSize=12;fontColor=default;fillColor=default;size=80;" parent="1" vertex="1">
          <mxGeometry x="500" y="20" width="80" height="370" as="geometry" />
        </mxCell>
        <mxCell id="G-GRrxJtMZ8-qGgRV_3n-5" style="rounded=0;orthogonalLoop=1;jettySize=auto;html=1;fontFamily=Helvetica;fontSize=12;fontColor=default;" parent="1" source="G-GRrxJtMZ8-qGgRV_3n-1" target="G-GRrxJtMZ8-qGgRV_3n-2" edge="1">
          <mxGeometry relative="1" as="geometry">
            <Array as="points">
              <mxPoint x="210" y="120" />
            </Array>
          </mxGeometry>
        </mxCell>
        <mxCell id="G-GRrxJtMZ8-qGgRV_3n-11" value="1. Save Diagram as Image" style="edgeLabel;html=1;align=center;verticalAlign=middle;resizable=0;points=[];fontSize=12;fontFamily=Helvetica;fontColor=default;" parent="G-GRrxJtMZ8-qGgRV_3n-5" vertex="1" connectable="0">
          <mxGeometry x="-0.0413" y="2" relative="1" as="geometry">
            <mxPoint x="4" y="-10" as="offset" />
          </mxGeometry>
        </mxCell>
        <mxCell id="G-GRrxJtMZ8-qGgRV_3n-1" value="ADL Application" style="shape=umlLifeline;perimeter=lifelinePerimeter;whiteSpace=wrap;html=1;container=1;dropTarget=0;collapsible=0;recursiveResize=0;outlineConnect=0;portConstraint=eastwest;newEdgeStyle={&quot;curved&quot;:0,&quot;rounded&quot;:0};" parent="1" vertex="1">
          <mxGeometry x="70" y="40" width="100" height="350" as="geometry" />
        </mxCell>
        <mxCell id="G-GRrxJtMZ8-qGgRV_3n-9" style="rounded=0;orthogonalLoop=1;jettySize=auto;html=1;fontFamily=Helvetica;fontSize=12;fontColor=default;" parent="1" source="G-GRrxJtMZ8-qGgRV_3n-2" target="G-GRrxJtMZ8-qGgRV_3n-3" edge="1">
          <mxGeometry relative="1" as="geometry">
            <Array as="points">
              <mxPoint x="330" y="160" />
            </Array>
          </mxGeometry>
        </mxCell>
        <mxCell id="G-GRrxJtMZ8-qGgRV_3n-12" value="2. Save Diagram as Image" style="edgeLabel;html=1;align=center;verticalAlign=middle;resizable=0;points=[];fontSize=12;fontFamily=Helvetica;fontColor=default;" parent="G-GRrxJtMZ8-qGgRV_3n-9" vertex="1" connectable="0">
          <mxGeometry x="-0.089" y="-1" relative="1" as="geometry">
            <mxPoint y="-11" as="offset" />
          </mxGeometry>
        </mxCell>
        <mxCell id="G-GRrxJtMZ8-qGgRV_3n-3" value="Bitmap Controller" style="shape=umlLifeline;perimeter=lifelinePerimeter;whiteSpace=wrap;html=1;container=1;dropTarget=0;collapsible=0;recursiveResize=0;outlineConnect=0;portConstraint=eastwest;newEdgeStyle={&quot;curved&quot;:0,&quot;rounded&quot;:0};participant=umlControl;strokeColor=default;align=center;verticalAlign=middle;fontFamily=Helvetica;fontSize=12;fontColor=default;fillColor=default;size=90;" parent="1" vertex="1">
          <mxGeometry x="360" y="10" width="80" height="380" as="geometry" />
        </mxCell>
        <mxCell id="G-GRrxJtMZ8-qGgRV_3n-2" value="&amp;nbsp; &amp;nbsp; &amp;nbsp;App API" style="shape=umlLifeline;perimeter=lifelinePerimeter;whiteSpace=wrap;html=1;container=1;dropTarget=0;collapsible=0;recursiveResize=0;outlineConnect=0;portConstraint=eastwest;newEdgeStyle={&quot;curved&quot;:0,&quot;rounded&quot;:0};participant=umlBoundary;size=80;" parent="1" vertex="1">
          <mxGeometry x="210" y="20" width="100" height="370" as="geometry" />
        </mxCell>
        <mxCell id="sQM8UWbegV8d2F65R5zS-2" style="rounded=0;orthogonalLoop=1;jettySize=auto;html=1;edgeStyle=elbowEdgeStyle;" parent="1" edge="1" target="G-GRrxJtMZ8-qGgRV_3n-3">
          <mxGeometry relative="1" as="geometry">
            <mxPoint x="399.5" y="280" as="sourcePoint" />
            <mxPoint x="480" y="400" as="targetPoint" />
            <Array as="points">
              <mxPoint x="450" y="340" />
            </Array>
          </mxGeometry>
        </mxCell>
        <mxCell id="sQM8UWbegV8d2F65R5zS-3" value="4. Save Bitmap as Image" style="edgeLabel;html=1;align=center;verticalAlign=middle;resizable=0;points=[];" parent="sQM8UWbegV8d2F65R5zS-2" vertex="1" connectable="0">
          <mxGeometry x="-0.052" y="3" relative="1" as="geometry">
            <mxPoint x="17" y="5" as="offset" />
          </mxGeometry>
        </mxCell>
        <mxCell id="sQM8UWbegV8d2F65R5zS-4" style="rounded=0;orthogonalLoop=1;jettySize=auto;html=1;" parent="1" edge="1" target="sQM8UWbegV8d2F65R5zS-1">
          <mxGeometry relative="1" as="geometry">
            <mxPoint x="401" y="200" as="sourcePoint" />
            <mxPoint x="800" y="320" as="targetPoint" />
          </mxGeometry>
        </mxCell>
        <mxCell id="sQM8UWbegV8d2F65R5zS-5" value="3. Get Bitmap" style="edgeLabel;html=1;align=center;verticalAlign=middle;resizable=0;points=[];" parent="sQM8UWbegV8d2F65R5zS-4" vertex="1" connectable="0">
          <mxGeometry x="0.6501" y="-2" relative="1" as="geometry">
            <mxPoint x="-45" y="-12" as="offset" />
          </mxGeometry>
        </mxCell>
        <mxCell id="sQM8UWbegV8d2F65R5zS-6" value="return Bitmap" style="rounded=0;orthogonalLoop=1;jettySize=auto;html=1;dashed=1;" parent="1" edge="1">
          <mxGeometry y="-10" relative="1" as="geometry">
            <mxPoint x="540" y="237" as="sourcePoint" />
            <mxPoint x="401.75" y="237" as="targetPoint" />
            <mxPoint as="offset" />
          </mxGeometry>
        </mxCell>
      </root>
    </mxGraphModel>
  </diagram>
</mxfile>
